<mxfile modified="2023-11-27T13:08:07.771Z" host="app.diagrams.net" agent="Mozilla/5.0 (Windows NT 10.0; Win64; x64) AppleWebKit/537.36 (KHTML, like Gecko) Chrome/119.0.0.0 Safari/537.36" etag="cXGsKPnS1vwS4bHFuZ-R" version="22.1.4" type="github">
  <diagram id="7gcUSTIZ7YSJ5vT40chW" name="Page-1">
    <mxGraphModel dx="1500" dy="763" grid="1" gridSize="10" guides="1" tooltips="1" connect="1" arrows="1" fold="1" page="1" pageScale="1" pageWidth="1169" pageHeight="827" math="0" shadow="0">
      <root>
        <mxCell id="0" />
        <mxCell id="1" parent="0" />
        <mxCell id="uiBFUZQpBNI7Ik9vQUs--66" value="" style="rounded=0;whiteSpace=wrap;html=1;" vertex="1" parent="1">
          <mxGeometry x="40" y="60" width="1110" height="520" as="geometry" />
        </mxCell>
        <mxCell id="uiBFUZQpBNI7Ik9vQUs--64" value="" style="group" vertex="1" connectable="0" parent="1">
          <mxGeometry x="80" y="100" width="1050" height="425.81" as="geometry" />
        </mxCell>
        <mxCell id="uiBFUZQpBNI7Ik9vQUs--27" value="" style="rounded=0;whiteSpace=wrap;html=1;dashed=1;" vertex="1" parent="uiBFUZQpBNI7Ik9vQUs--64">
          <mxGeometry x="430" y="5.810000000000002" width="170" height="360" as="geometry" />
        </mxCell>
        <mxCell id="uiBFUZQpBNI7Ik9vQUs--47" value="" style="rounded=0;whiteSpace=wrap;html=1;dashed=1;dashPattern=1 2;" vertex="1" parent="uiBFUZQpBNI7Ik9vQUs--64">
          <mxGeometry x="442.5" y="145.81" width="137.5" height="200" as="geometry" />
        </mxCell>
        <mxCell id="uiBFUZQpBNI7Ik9vQUs--21" value="" style="rounded=0;whiteSpace=wrap;html=1;dashed=1;" vertex="1" parent="uiBFUZQpBNI7Ik9vQUs--64">
          <mxGeometry x="210" y="5.810000000000002" width="110" height="180" as="geometry" />
        </mxCell>
        <mxCell id="SZY12_XKgGBlkoAp8IEY-2" value="Databricks&lt;br&gt;Spark" style="aspect=fixed;html=1;perimeter=none;align=center;shadow=0;dashed=0;image;fontSize=12;image=img/lib/mscae/Databricks.svg;" parent="uiBFUZQpBNI7Ik9vQUs--64" vertex="1">
          <mxGeometry x="760" y="77.69" width="66.5" height="70" as="geometry" />
        </mxCell>
        <mxCell id="SZY12_XKgGBlkoAp8IEY-6" value="CosmosDB" style="aspect=fixed;html=1;perimeter=none;align=center;shadow=0;dashed=0;image;fontSize=12;image=img/lib/mscae/CosmosDB.svg;" parent="uiBFUZQpBNI7Ik9vQUs--64" vertex="1">
          <mxGeometry x="236.25" y="105.81" width="50" height="50" as="geometry" />
        </mxCell>
        <mxCell id="uiBFUZQpBNI7Ik9vQUs--1" value="LBG User Data &amp;amp; Transaction Data" style="shape=datastore;whiteSpace=wrap;html=1;" vertex="1" parent="uiBFUZQpBNI7Ik9vQUs--64">
          <mxGeometry y="25.810000000000002" width="90" height="90" as="geometry" />
        </mxCell>
        <mxCell id="uiBFUZQpBNI7Ik9vQUs--2" value="" style="endArrow=classic;html=1;rounded=0;" edge="1" parent="uiBFUZQpBNI7Ik9vQUs--64" source="uiBFUZQpBNI7Ik9vQUs--1">
          <mxGeometry width="50" height="50" relative="1" as="geometry">
            <mxPoint x="440" y="285.81" as="sourcePoint" />
            <mxPoint x="210" y="70.81" as="targetPoint" />
          </mxGeometry>
        </mxCell>
        <mxCell id="uiBFUZQpBNI7Ik9vQUs--4" value="" style="verticalLabelPosition=bottom;html=1;verticalAlign=top;align=center;strokeColor=none;fillColor=#00BEF2;shape=mxgraph.azure.sql_database_sql_azure;" vertex="1" parent="uiBFUZQpBNI7Ik9vQUs--64">
          <mxGeometry x="236.25" y="25.810000000000002" width="57.5" height="60" as="geometry" />
        </mxCell>
        <mxCell id="uiBFUZQpBNI7Ik9vQUs--5" value="" style="endArrow=classic;html=1;rounded=0;exitX=0.985;exitY=0.598;exitDx=0;exitDy=0;exitPerimeter=0;entryX=0;entryY=0.5;entryDx=0;entryDy=0;" edge="1" parent="uiBFUZQpBNI7Ik9vQUs--64" source="uiBFUZQpBNI7Ik9vQUs--21" target="uiBFUZQpBNI7Ik9vQUs--28">
          <mxGeometry width="50" height="50" relative="1" as="geometry">
            <mxPoint x="320.3349999999999" y="122.81" as="sourcePoint" />
            <mxPoint x="380" y="135.81" as="targetPoint" />
          </mxGeometry>
        </mxCell>
        <mxCell id="uiBFUZQpBNI7Ik9vQUs--22" value="" style="sketch=0;pointerEvents=1;shadow=0;dashed=0;html=1;strokeColor=none;fillColor=#DF8C42;labelPosition=center;verticalLabelPosition=bottom;verticalAlign=top;align=center;outlineConnect=0;shape=mxgraph.veeam2.azure_blob;" vertex="1" parent="uiBFUZQpBNI7Ik9vQUs--64">
          <mxGeometry x="472.5" y="16.94" width="65" height="60.75" as="geometry" />
        </mxCell>
        <mxCell id="uiBFUZQpBNI7Ik9vQUs--23" value="" style="image;aspect=fixed;html=1;points=[];align=center;fontSize=12;image=img/lib/azure2/iot/Function_Apps.svg;" vertex="1" parent="uiBFUZQpBNI7Ik9vQUs--64">
          <mxGeometry x="130" y="32.31" width="34" height="30" as="geometry" />
        </mxCell>
        <mxCell id="uiBFUZQpBNI7Ik9vQUs--24" value="" style="image;aspect=fixed;html=1;points=[];align=center;fontSize=12;image=img/lib/azure2/iot/Function_Apps.svg;" vertex="1" parent="uiBFUZQpBNI7Ik9vQUs--64">
          <mxGeometry x="350" y="75.81" width="34" height="30" as="geometry" />
        </mxCell>
        <mxCell id="uiBFUZQpBNI7Ik9vQUs--25" value="" style="endArrow=classic;html=1;rounded=0;exitX=1;exitY=0.5;exitDx=0;exitDy=0;entryX=0.024;entryY=0.491;entryDx=0;entryDy=0;entryPerimeter=0;" edge="1" parent="uiBFUZQpBNI7Ik9vQUs--64" source="uiBFUZQpBNI7Ik9vQUs--28" target="SZY12_XKgGBlkoAp8IEY-2">
          <mxGeometry width="50" height="50" relative="1" as="geometry">
            <mxPoint x="520" y="73.81" as="sourcePoint" />
            <mxPoint x="640" y="125.81" as="targetPoint" />
            <Array as="points" />
          </mxGeometry>
        </mxCell>
        <mxCell id="uiBFUZQpBNI7Ik9vQUs--26" value="" style="image;aspect=fixed;html=1;points=[];align=center;fontSize=12;image=img/lib/azure2/iot/Function_Apps.svg;" vertex="1" parent="uiBFUZQpBNI7Ik9vQUs--64">
          <mxGeometry x="610" y="75.81" width="34" height="30" as="geometry" />
        </mxCell>
        <mxCell id="uiBFUZQpBNI7Ik9vQUs--28" value="1. Json file with user-transaction data for past 3 months" style="rounded=0;whiteSpace=wrap;html=1;dashed=1;" vertex="1" parent="uiBFUZQpBNI7Ik9vQUs--64">
          <mxGeometry x="442.5" y="88.31" width="127.5" height="45" as="geometry" />
        </mxCell>
        <mxCell id="uiBFUZQpBNI7Ik9vQUs--30" value="2. Json Data of user-transaction, in form of different group i.e income, expenditure in grocery,bills and others for current month" style="rounded=0;whiteSpace=wrap;html=1;dashed=1;" vertex="1" parent="uiBFUZQpBNI7Ik9vQUs--64">
          <mxGeometry x="442.5" y="155.81" width="127.5" height="87.5" as="geometry" />
        </mxCell>
        <mxCell id="uiBFUZQpBNI7Ik9vQUs--31" value="3. Json file with user-transaction data- Excepted/estimated expenditure for upcoming month" style="rounded=0;whiteSpace=wrap;html=1;dashed=1;" vertex="1" parent="uiBFUZQpBNI7Ik9vQUs--64">
          <mxGeometry x="442.5" y="260.81" width="127.5" height="75" as="geometry" />
        </mxCell>
        <mxCell id="uiBFUZQpBNI7Ik9vQUs--32" value="Using Spark-scala data &lt;br&gt;will be analyzed to calculate&lt;br&gt;the expenditure of the&lt;br&gt;current month and will &lt;br&gt;predict the expenditure of &lt;br&gt;the upcoming month." style="text;html=1;align=left;verticalAlign=middle;resizable=0;points=[];autosize=1;strokeColor=default;fillColor=none;dashed=1;dashPattern=1 1;" vertex="1" parent="uiBFUZQpBNI7Ik9vQUs--64">
          <mxGeometry x="820" y="2.3100000000000023" width="170" height="100" as="geometry" />
        </mxCell>
        <mxCell id="uiBFUZQpBNI7Ik9vQUs--33" value="" style="verticalLabelPosition=bottom;html=1;verticalAlign=top;align=center;strokeColor=none;fillColor=#00BEF2;shape=mxgraph.azure.scheduler;pointerEvents=1;" vertex="1" parent="uiBFUZQpBNI7Ik9vQUs--64">
          <mxGeometry x="611" y="32.31" width="33" height="40" as="geometry" />
        </mxCell>
        <mxCell id="uiBFUZQpBNI7Ik9vQUs--34" value="" style="verticalLabelPosition=bottom;html=1;verticalAlign=top;align=center;strokeColor=none;fillColor=#00BEF2;shape=mxgraph.azure.scheduler;pointerEvents=1;" vertex="1" parent="uiBFUZQpBNI7Ik9vQUs--64">
          <mxGeometry x="350" y="36.160000000000004" width="31.75" height="32.31" as="geometry" />
        </mxCell>
        <mxCell id="uiBFUZQpBNI7Ik9vQUs--35" value="" style="endArrow=classic;html=1;rounded=0;exitX=0.168;exitY=1.029;exitDx=0;exitDy=0;exitPerimeter=0;entryX=1;entryY=0.25;entryDx=0;entryDy=0;" edge="1" parent="uiBFUZQpBNI7Ik9vQUs--64" source="SZY12_XKgGBlkoAp8IEY-2">
          <mxGeometry width="50" height="50" relative="1" as="geometry">
            <mxPoint x="690" y="185.81" as="sourcePoint" />
            <mxPoint x="570" y="183.31" as="targetPoint" />
            <Array as="points">
              <mxPoint x="670" y="183.81" />
              <mxPoint x="610" y="183.81" />
            </Array>
          </mxGeometry>
        </mxCell>
        <mxCell id="uiBFUZQpBNI7Ik9vQUs--36" value="" style="endArrow=classic;html=1;rounded=0;entryX=1;entryY=0.5;entryDx=0;entryDy=0;" edge="1" parent="uiBFUZQpBNI7Ik9vQUs--64" target="uiBFUZQpBNI7Ik9vQUs--31">
          <mxGeometry width="50" height="50" relative="1" as="geometry">
            <mxPoint x="610" y="185.81" as="sourcePoint" />
            <mxPoint x="560" y="165.81" as="targetPoint" />
            <Array as="points">
              <mxPoint x="610" y="298.81" />
            </Array>
          </mxGeometry>
        </mxCell>
        <mxCell id="uiBFUZQpBNI7Ik9vQUs--38" value="Sceduler will trigger the azure function once in a week.&lt;br&gt;Job 1. It will aggregate data of user-transaction to create the json file and put in Blob storage." style="text;html=1;strokeColor=default;fillColor=none;align=center;verticalAlign=middle;whiteSpace=wrap;rounded=0;dashed=1;dashPattern=1 2;" vertex="1" parent="uiBFUZQpBNI7Ik9vQUs--64">
          <mxGeometry x="330.5" y="118.31" width="89.5" height="167.5" as="geometry" />
        </mxCell>
        <mxCell id="uiBFUZQpBNI7Ik9vQUs--40" value="Azure Function will trigger as per sceduler once in day.&lt;br&gt;Job1. User and certain transaction will store in sql and nosql DB.&lt;br&gt;Job 2. 3months older data will be cleaned up." style="text;html=1;strokeColor=default;fillColor=none;align=center;verticalAlign=middle;whiteSpace=wrap;rounded=0;dashed=1;dashPattern=1 2;" vertex="1" parent="uiBFUZQpBNI7Ik9vQUs--64">
          <mxGeometry x="102.25" y="80.81" width="89.5" height="175" as="geometry" />
        </mxCell>
        <mxCell id="uiBFUZQpBNI7Ik9vQUs--41" value="" style="verticalLabelPosition=bottom;html=1;verticalAlign=top;align=center;strokeColor=none;fillColor=#00BEF2;shape=mxgraph.azure.scheduler;pointerEvents=1;" vertex="1" parent="uiBFUZQpBNI7Ik9vQUs--64">
          <mxGeometry x="130" width="31.75" height="32.31" as="geometry" />
        </mxCell>
        <mxCell id="uiBFUZQpBNI7Ik9vQUs--44" value="exp-expenditure-service&lt;br&gt;(Java-Spring)" style="rounded=1;whiteSpace=wrap;html=1;" vertex="1" parent="uiBFUZQpBNI7Ik9vQUs--64">
          <mxGeometry x="690" y="235.81" width="120" height="60" as="geometry" />
        </mxCell>
        <mxCell id="uiBFUZQpBNI7Ik9vQUs--45" value="" style="endArrow=classic;html=1;rounded=0;entryX=0.5;entryY=1;entryDx=0;entryDy=0;exitX=1;exitY=0.87;exitDx=0;exitDy=0;exitPerimeter=0;" edge="1" parent="uiBFUZQpBNI7Ik9vQUs--64" source="uiBFUZQpBNI7Ik9vQUs--47" target="uiBFUZQpBNI7Ik9vQUs--44">
          <mxGeometry width="50" height="50" relative="1" as="geometry">
            <mxPoint x="550" y="215.81" as="sourcePoint" />
            <mxPoint x="600" y="165.81" as="targetPoint" />
            <Array as="points">
              <mxPoint x="720" y="316.81" />
            </Array>
          </mxGeometry>
        </mxCell>
        <mxCell id="uiBFUZQpBNI7Ik9vQUs--49" value="Data will be retrived&amp;nbsp;" style="text;html=1;strokeColor=none;fillColor=none;align=center;verticalAlign=middle;whiteSpace=wrap;rounded=0;" vertex="1" parent="uiBFUZQpBNI7Ik9vQUs--64">
          <mxGeometry x="666.5" y="345.81" width="60" height="30" as="geometry" />
        </mxCell>
        <mxCell id="uiBFUZQpBNI7Ik9vQUs--53" value="" style="outlineConnect=0;dashed=0;verticalLabelPosition=bottom;verticalAlign=top;align=center;html=1;shape=mxgraph.aws3.alexa_voice_service;fillColor=#5294CF;gradientColor=none;" vertex="1" parent="uiBFUZQpBNI7Ik9vQUs--64">
          <mxGeometry x="960" y="325.81" width="60" height="63" as="geometry" />
        </mxCell>
        <mxCell id="uiBFUZQpBNI7Ik9vQUs--54" value="" style="endArrow=classic;html=1;rounded=0;entryX=0;entryY=0.5;entryDx=0;entryDy=0;entryPerimeter=0;exitX=0.75;exitY=1;exitDx=0;exitDy=0;" edge="1" parent="uiBFUZQpBNI7Ik9vQUs--64" source="uiBFUZQpBNI7Ik9vQUs--44" target="uiBFUZQpBNI7Ik9vQUs--53">
          <mxGeometry width="50" height="50" relative="1" as="geometry">
            <mxPoint x="820" y="415.81" as="sourcePoint" />
            <mxPoint x="870" y="365.81" as="targetPoint" />
            <Array as="points">
              <mxPoint x="780" y="355.81" />
            </Array>
          </mxGeometry>
        </mxCell>
        <mxCell id="uiBFUZQpBNI7Ik9vQUs--55" value="Alexa will set up&lt;br&gt;&amp;nbsp;for differently&lt;br&gt;&amp;nbsp;abled people to know &lt;br&gt;about their expenditure." style="text;html=1;align=center;verticalAlign=middle;resizable=0;points=[];autosize=1;strokeColor=none;fillColor=none;" vertex="1" parent="uiBFUZQpBNI7Ik9vQUs--64">
          <mxGeometry x="780" y="355.81" width="150" height="70" as="geometry" />
        </mxCell>
        <mxCell id="uiBFUZQpBNI7Ik9vQUs--56" value="" style="endArrow=classic;html=1;rounded=0;entryX=0.857;entryY=1.04;entryDx=0;entryDy=0;entryPerimeter=0;" edge="1" parent="uiBFUZQpBNI7Ik9vQUs--64" source="uiBFUZQpBNI7Ik9vQUs--53" target="uiBFUZQpBNI7Ik9vQUs--44">
          <mxGeometry width="50" height="50" relative="1" as="geometry">
            <mxPoint x="550" y="205.81" as="sourcePoint" />
            <mxPoint x="780" y="275.81" as="targetPoint" />
            <Array as="points">
              <mxPoint x="790" y="345.81" />
            </Array>
          </mxGeometry>
        </mxCell>
        <mxCell id="uiBFUZQpBNI7Ik9vQUs--57" value="" style="endArrow=classic;html=1;rounded=0;entryX=1;entryY=0.25;entryDx=0;entryDy=0;" edge="1" parent="uiBFUZQpBNI7Ik9vQUs--64" target="uiBFUZQpBNI7Ik9vQUs--44">
          <mxGeometry width="50" height="50" relative="1" as="geometry">
            <mxPoint x="930" y="250.81" as="sourcePoint" />
            <mxPoint x="940" y="265.81" as="targetPoint" />
          </mxGeometry>
        </mxCell>
        <mxCell id="uiBFUZQpBNI7Ik9vQUs--58" value="Data will be retrive.&lt;br&gt;Using Rest API call" style="text;html=1;align=center;verticalAlign=middle;resizable=0;points=[];autosize=1;strokeColor=none;fillColor=none;" vertex="1" parent="uiBFUZQpBNI7Ik9vQUs--64">
          <mxGeometry x="790" y="200.81" width="130" height="40" as="geometry" />
        </mxCell>
        <mxCell id="uiBFUZQpBNI7Ik9vQUs--59" value="Data will be retrive.&lt;br&gt;Using Rest API call" style="text;html=1;align=center;verticalAlign=middle;resizable=0;points=[];autosize=1;strokeColor=none;fillColor=none;" vertex="1" parent="uiBFUZQpBNI7Ik9vQUs--64">
          <mxGeometry x="800" y="305.81" width="130" height="40" as="geometry" />
        </mxCell>
        <mxCell id="uiBFUZQpBNI7Ik9vQUs--61" value="Job will &lt;br&gt;trigger once &lt;br&gt;in a fortnight &lt;br&gt;to spinup &lt;br&gt;the Databricks" style="text;html=1;align=center;verticalAlign=middle;resizable=0;points=[];autosize=1;strokeColor=none;fillColor=none;" vertex="1" parent="uiBFUZQpBNI7Ik9vQUs--64">
          <mxGeometry x="640" y="28.310000000000002" width="100" height="90" as="geometry" />
        </mxCell>
        <mxCell id="uiBFUZQpBNI7Ik9vQUs--63" value="" style="endArrow=classic;html=1;rounded=0;exitX=1;exitY=0.5;exitDx=0;exitDy=0;" edge="1" parent="uiBFUZQpBNI7Ik9vQUs--64" source="uiBFUZQpBNI7Ik9vQUs--44">
          <mxGeometry width="50" height="50" relative="1" as="geometry">
            <mxPoint x="940" y="260.81" as="sourcePoint" />
            <mxPoint x="930" y="265.81" as="targetPoint" />
          </mxGeometry>
        </mxCell>
        <mxCell id="uiBFUZQpBNI7Ik9vQUs--65" value="" style="group" vertex="1" connectable="0" parent="uiBFUZQpBNI7Ik9vQUs--64">
          <mxGeometry x="930" y="193.31" width="120" height="125" as="geometry" />
        </mxCell>
        <mxCell id="uiBFUZQpBNI7Ik9vQUs--51" value="&lt;br&gt;&lt;br&gt;&lt;br&gt;&lt;br&gt;Mobile App&lt;br&gt;&amp;amp;&lt;br&gt;Online Bank" style="rounded=0;whiteSpace=wrap;html=1;movable=1;resizable=1;rotatable=1;deletable=1;editable=1;locked=0;connectable=1;" vertex="1" parent="uiBFUZQpBNI7Ik9vQUs--65">
          <mxGeometry width="120" height="125" as="geometry" />
        </mxCell>
        <mxCell id="uiBFUZQpBNI7Ik9vQUs--52" value="" style="shape=image;verticalLabelPosition=bottom;verticalAlign=top;imageAspect=0;image=https://upload.wikimedia.org/wikipedia/en/thumb/f/fe/Lloyds_Banking_Group_logo.svg/1920px-Lloyds_Banking_Group_logo.svg.png;movable=1;resizable=1;rotatable=1;deletable=1;editable=1;locked=0;connectable=1;" vertex="1" parent="uiBFUZQpBNI7Ik9vQUs--65">
          <mxGeometry x="5" width="110" height="55" as="geometry" />
        </mxCell>
      </root>
    </mxGraphModel>
  </diagram>
</mxfile>
